<?xml version="1.0" encoding="UTF-8"?>
<svg width="100px" height="82px" viewBox="0 0 100 82" version="1.1" xmlns="http://www.w3.org/2000/svg" xmlns:xlink="http://www.w3.org/1999/xlink">
    <!-- Generator: Sketch 41.1 (35376) - http://www.bohemiancoding.com/sketch -->
    <title>design</title>
    <desc>Created with Sketch.</desc>
    <defs></defs>
    <g id="icons" stroke="none" stroke-width="1" fill="none" fill-rule="evenodd">
        <g id="design" transform="translate(0.000000, 0.133333)">
            <g id="Layer_1">
                <g id="Group">
                    <path d="M99.9581481,25.0107407 C99.9581481,24.4118519 99.7403704,23.8133333 99.3481481,23.3344444 L84.4533333,5.29 C84.2907407,5.1037037 84.1003704,4.94444444 83.8974074,4.81111111 C83.4088889,4.39888889 82.7855556,4.14592593 82.1066667,4.14592593 L52.4518519,4.14592593 L52.33,4.14592593 L22.6622222,4.14592593 C21.8074074,4.14592593 21.0348148,4.53222222 20.5181481,5.17037037 C20.5044444,5.18407407 20.5044444,5.18407407 20.4911111,5.19740741 L5.59777778,23.2281481 C5.20407407,23.707037 5.00111111,24.3059259 5.00111111,24.9044444 C5.00111111,25.3033333 5.08222222,25.6896296 5.27185185,26.0622222 C5.36666667,26.2622222 5.48962963,26.4214815 5.62481481,26.5944444 L50.8381481,80.3425926 C50.9733333,80.5018519 51.137037,80.6488889 51.2992593,80.7685185 C51.312963,80.7822222 51.34,80.7955556 51.3533333,80.8081481 C51.5562963,80.9414815 51.7603704,81.0477778 51.9907407,81.1277778 C52.0448148,81.1548148 52.1125926,81.1807407 52.1803704,81.1944444 C52.4385185,81.2744444 52.6966667,81.3277778 52.9674074,81.3277778 L52.9811111,81.3277778 L52.9948148,81.3277778 C53.1844444,81.3277778 53.3614815,81.3007407 53.5374074,81.2611111 C53.5914815,81.2474074 53.6322222,81.2351852 53.6862963,81.2214815 C53.8214815,81.1818519 53.9444444,81.1414815 54.08,81.0881481 C54.1207407,81.0611111 54.1611111,81.0485185 54.2151852,81.0214815 C54.3777778,80.9414815 54.5274074,80.8622222 54.6762963,80.7425926 C54.6762963,80.7425926 54.69,80.7288889 54.7033333,80.7166667 C54.8385185,80.622963 54.9481481,80.5033333 55.07,80.3711111 C55.0837037,80.3574074 55.097037,80.3440741 55.1107407,80.3181481 L99.3466667,26.6892593 L99.332963,26.6755556 C99.4681481,26.5162963 99.5911111,26.3559259 99.6859259,26.1696296 C99.8633333,25.7959259 99.9581481,25.397037 99.9581481,25.0107407 Z" id="Shape" fill="#FFD83F"></path>
                    <g id="XMLID_13_">
                        <g id="Group">
                            <polygon id="Shape" fill="#302C58" points="59.6522213 22.5455556 47.8944521 66.9130274 35.1922222 22.5455556"></polygon>
                            <polygon id="Shape" fill="#302C58" points="77.3075923 6.20481481 87.4625921 18.4981848 67.1525926 18.4981848"></polygon>
                            <polygon id="Shape" fill="#302C58" points="47.4421415 6.19111111 57.5334197 18.4111114 37.3496296 18.4111114"></polygon>
                            <polygon id="Shape" fill="#302C58" points="17.6336832 6.11111111 27.7888884 18.4047298 7.47888889 18.4047298"></polygon>
                            <path d="M94.957037,20.9781481 C94.957037,20.3792593 94.7403704,19.7807407 94.347037,19.3018519 L79.4522222,1.25740741 C79.2896296,1.07111111 79.0992593,0.911851852 78.8962963,0.778518519 C78.4077778,0.365185185 77.7844444,0.112222222 77.1055556,0.112222222 L17.6614815,0.112222222 C16.8066667,0.112222222 16.0340741,0.498518519 15.5174074,1.13666667 C15.5037037,1.15037037 15.5037037,1.15037037 15.4903704,1.1637037 L0.596666667,19.1944444 C0.202962963,19.6733333 0,20.2722222 0,20.8707407 C0,21.2696296 0.0811111111,21.6559259 0.270740741,22.0285185 C0.365555556,22.2285185 0.487407407,22.3877778 0.623703704,22.5607407 L9.10555556,32.6440741 C10.122963,33.852963 11.9803704,33.9403704 13.1111111,32.8314815 L13.1496296,32.792963 C14.1366667,31.8244444 14.2125926,30.2785185 13.3233333,29.2214815 L8.54518519,23.5448148 L30.4807407,23.5448148 L41.8081481,63.0677778 L30.3381481,49.44 C29.3092593,48.2177778 27.4311111,48.13 26.2888889,49.2503704 L26.2888889,49.2503704 C25.2903704,50.23 25.2144444,51.792963 26.112963,52.8614815 L45.837037,76.3088889 C45.9722222,76.4681481 46.1359259,76.6151852 46.2981481,76.7348148 C46.3118519,76.7485185 46.3388889,76.7618519 46.3522222,76.7744444 C46.5551852,76.9077778 46.7592593,77.0140741 46.9896296,77.0940741 C47.0437037,77.12 47.1114815,77.147037 47.1792593,77.1607407 C47.4374074,77.2407407 47.6948148,77.2940741 47.9662963,77.2940741 L47.9933333,77.2940741 C48.182963,77.2940741 48.36,77.267037 48.5359259,77.2274074 C48.59,77.2137037 48.6307407,77.2003704 48.6848148,77.1877778 C48.82,77.1481481 48.942963,77.1077778 49.0785185,77.0544444 C49.1192593,77.0285185 49.1596296,77.0148148 49.2137037,76.9877778 C49.3762963,76.9077778 49.5259259,76.8285185 49.6748148,76.7088889 C49.6748148,76.7088889 49.6885185,76.6951852 49.7018519,76.6818519 C49.837037,76.5881481 49.9455556,76.4692593 50.0685185,76.3362963 C50.0822222,76.3225926 50.0955556,76.3092593 50.1092593,76.2833333 L94.3466667,22.6544444 L94.3333333,22.6407407 C94.4685185,22.4814815 94.5903704,22.3211111 94.6862963,22.1348148 C94.8622222,21.762963 94.957037,21.3633333 94.957037,20.9781481 Z M71.367037,5.46148148 L62.2781481,16.4662963 L53.1892593,5.46148148 C53.1892593,5.46148148 71.367037,5.46148148 71.367037,5.46148148 Z M56.5262963,18.1959259 L38.3496296,18.1959259 L47.4385185,7.19111111 L56.5262963,18.1959259 Z M8.47888889,18.1959259 L17.6351852,7.11111111 L26.7918519,18.1959259 L8.47888889,18.1959259 Z M23.4007407,5.46148148 L41.7137037,5.46148148 L32.557037,16.5466667 L23.4007407,5.46148148 Z M47.8581481,64.2933333 L36.1922222,23.5455556 L58.6566667,23.5455556 L47.8581481,64.2933333 Z M53.8274074,63.2414815 L64.3137037,23.6518519 L86.4659259,23.6518519 L53.8274074,63.2414815 Z M68.1525926,18.2896296 L77.3092593,7.20481481 L86.4659259,18.2896296 L68.1525926,18.2896296 Z" id="Shape" fill="#222051"></path>
                            <path d="M15.8818519,36.837037 L15.8444444,36.8744444 C14.8562963,37.8437037 14.7814815,39.3911111 15.6707407,40.4477778 L19.5314815,45.0374074 C20.5496296,46.2474074 22.4085185,46.3348148 23.5392593,45.2248148 C23.5518519,45.2122222 23.5651852,45.2 23.5777778,45.1862963 C24.5659259,44.217037 24.6407407,42.6696296 23.7514815,41.612963 L19.8896296,37.0244444 C18.8722222,35.8144444 17.0125926,35.7281481 15.8818519,36.837037 Z" id="Shape" fill="#222051"></path>
                        </g>
                    </g>
                </g>
            </g>
        </g>
    </g>
</svg>