<?xml version="1.0" encoding="UTF-8"?>
<svg width="100px" height="113px" viewBox="0 0 100 113" version="1.1" xmlns="http://www.w3.org/2000/svg" xmlns:xlink="http://www.w3.org/1999/xlink">
    <!-- Generator: Sketch 41 (35326) - http://www.bohemiancoding.com/sketch -->
    <title>arrow-left</title>
    <desc>Created with Sketch.</desc>
    <defs></defs>
    <g id="icons" stroke="none" stroke-width="1" fill="none" fill-rule="evenodd">
        <g id="arrow-left" transform="translate(50.000000, 56.333333) scale(-1, 1) translate(-50.000000, -56.333333) ">
            <g id="Layer_1">
                <g id="Group">
                    <path d="M97.288,61.2126667 L22.3153333,18.322 C20.836,17.482 19.0286667,17.482 17.568,18.304 C16.0886667,19.126 15.176,20.6593333 15.158,22.3213333 L14.72,107.372667 C14.72,107.372667 14.72,107.372667 14.72,107.390667 C14.72,109.034 15.6326667,110.568 17.0753333,111.408 C17.824,111.828 18.6453333,112.047333 19.4853333,112.047333 C20.2886667,112.047333 21.1106667,111.846667 21.8406667,111.426667 L97.2513333,69.284 C98.7306667,68.444 99.6433333,66.9286667 99.6433333,65.2486667 C99.6433333,65.2486667 99.6433333,65.2486667 99.6433333,65.2306667 C99.6433333,63.5866667 98.7486667,62.0526667 97.288,61.2126667 Z" id="Shape" fill="#4EFFBB"></path>
                    <g id="XMLID_15_" fill="#222051">
                        <g id="Group">
                            <path d="M47.3013333,29.9253333 L47.3013333,29.9253333 C49.4833333,27.7433333 48.994,24.084 46.3153333,22.552 L41.4566667,19.7713333 C39.6233333,18.7233333 37.3153333,19.032 35.822,20.5233333 L35.822,20.5233333 C33.64,22.7053333 34.1293333,26.3646667 36.808,27.8966667 L41.6686667,30.676 C43.5,31.726 45.808,31.4173333 47.3013333,29.9253333 Z" id="Shape"></path>
                            <path d="M82.9726667,43.5233333 L60.0686667,30.4206667 C58.2353333,29.3726667 55.9293333,29.6813333 54.436,31.1726667 L54.436,31.1726667 C52.254,33.3546667 52.7433333,37.012 55.422,38.544 L71.0866667,47.504 L9.954,81.6666667 L10.3006667,12.738 L23.082,20.0473333 C24.8966667,21.086 27.1833333,20.7793333 28.66,19.3006667 L28.7293333,19.2313333 C30.8893333,17.0713333 30.4053333,13.4486667 27.754,11.9313333 L8,0.632 C6.52066667,-0.208 4.71333333,-0.208 3.25266667,0.614 C1.77333333,1.436 0.860666667,2.96933333 0.842666667,4.63133333 L0.404666667,89.6826667 C0.404666667,89.6826667 0.404666667,89.6826667 0.404666667,89.7006667 C0.404666667,91.344 1.31733333,92.878 2.76,93.718 C3.50866667,94.138 4.33,94.3573333 5.17,94.3573333 C5.97333333,94.3573333 6.79533333,94.1566667 7.52533333,93.7366667 L82.936,51.594 C84.4153333,50.754 85.328,49.2386667 85.328,47.5586667 C85.328,47.5586667 85.328,47.5586667 85.328,47.5406667 C85.328,45.8966667 84.4333333,44.3633333 82.9726667,43.5233333 Z" id="Shape"></path>
                        </g>
                    </g>
                </g>
            </g>
        </g>
    </g>
</svg>