<?xml version="1.0" encoding="UTF-8"?>
<svg width="100px" height="87px" viewBox="0 0 100 87" version="1.1" xmlns="http://www.w3.org/2000/svg" xmlns:xlink="http://www.w3.org/1999/xlink">
    <!-- Generator: Sketch 41 (35326) - http://www.bohemiancoding.com/sketch -->
    <title>code</title>
    <desc>Created with Sketch.</desc>
    <defs></defs>
    <g id="icons" stroke="none" stroke-width="1" fill="none" fill-rule="evenodd">
        <g id="code">
            <g id="Layer_1">
                <g id="Group">
                    <g id="XMLID_5_">
                        <g id="Group">
                            <path d="M36.4195971,60.2598156 C37.4878798,59.1915329 37.4878798,57.4568112 36.4195971,56.3881871 L26.9102083,46.8787982 L36.9272789,36.8511437 C37.9955616,35.782861 37.9955616,34.0481393 36.9272789,32.9795152 C35.8589962,31.9112325 34.1242745,31.9112325 33.0556504,32.9795152 L21.1027654,44.942984 C20.0238989,46.0112666 20.0238989,47.7459884 21.1027654,48.8146125 L32.5479686,60.2598156 C33.0874018,60.7992489 33.7855924,61.0638443 34.4837829,61.0638443 C35.1819734,61.0638443 35.8907477,60.7992489 36.4195971,60.2598156 Z M55.1317856,35.6131786 C55.7982247,34.2591328 55.2482076,32.6090816 53.8941618,31.9426425 C52.5401161,31.2656197 50.9006487,31.8156367 50.2236258,33.1696825 L38.2389894,57.2447934 C37.5619665,58.5988392 38.1119836,60.2383066 39.4660294,60.9153295 C39.8572892,61.1058382 40.270058,61.2010925 40.6824855,61.2010925 C41.6872653,61.2010925 42.660635,60.6404916 43.1365654,59.6780471 L55.1317856,35.6131786 Z M56.9617617,36.8508023 L66.9788324,46.8784568 L57.4694435,56.3878457 C56.4011608,57.4561284 56.4011608,59.1908501 57.4694435,60.2594742 C57.9982929,60.7989075 58.7070673,61.0635029 59.4052578,61.0635029 C60.1034483,61.0635029 60.8016388,60.7989075 61.341072,60.2594742 L72.796859,48.8142711 C73.8651417,47.7459884 73.8651417,46.0112666 72.796859,44.9426425 L60.8333902,32.9791738 C59.7651075,31.9108911 58.0303858,31.9108911 56.9617617,32.9791738 C55.8931376,34.0474565 55.893479,35.7821782 56.9617617,36.8508023 Z M88.5049505,21.7876408 L88.5049505,75.3011267 L5.47934449,75.3011267 L5.47934449,21.7876408 L88.5049505,21.7876408 Z" id="Shape" fill="#4EFFBB"></path>
                            <path d="M47.6520997,71.4923182 C48.7203824,70.4240355 48.7203824,68.6893138 47.6520997,67.6206897 L38.1427108,58.1113008 L48.1597815,48.0836463 C49.2280642,47.0153636 49.2280642,45.2806419 48.1597815,44.2120178 C47.0914988,43.1437351 45.3567771,43.1437351 44.288153,44.2120178 L32.335268,56.1754865 C31.2564015,57.2437692 31.2564015,58.978491 32.335268,60.0471151 L43.7804712,71.4923182 C44.3199044,72.0317515 45.0180949,72.2963469 45.7162854,72.2963469 C46.4144759,72.2963469 47.1232503,72.0317515 47.6520997,71.4923182 Z M66.3642882,46.8456811 C67.0307272,45.4916354 66.4807101,43.8415842 65.1266644,43.1751451 C63.7726186,42.4981222 62.1331512,43.0481393 61.4561284,44.402185 L49.471492,68.477296 C48.7944691,69.8313418 49.3444862,71.4708091 50.6985319,72.147832 C51.0897917,72.3383407 51.5025606,72.4335951 51.9149881,72.4335951 C52.9197678,72.4335951 53.8931376,71.8729942 54.3690679,70.9105497 L66.3642882,46.8456811 Z M68.1942643,48.0833049 L78.2113349,58.1109594 L68.7019461,67.6203482 C67.6336634,68.6886309 67.6336634,70.4233527 68.7019461,71.4919768 C69.2307955,72.03141 69.9395698,72.2960055 70.6377603,72.2960055 C71.3359508,72.2960055 72.0341413,72.03141 72.5735746,71.4919768 L84.0293616,60.0467736 C85.0976442,58.978491 85.0976442,57.2437692 84.0293616,56.1751451 L72.0658928,44.2116763 C70.9976101,43.1433936 69.2628884,43.1433936 68.1942643,44.2116763 C67.1256402,45.279959 67.1259816,47.0146808 68.1942643,48.0833049 Z M99.7374531,33.0201434 L99.7374531,86.5336292 L16.711847,86.5336292 L16.711847,33.0201434 L99.7374531,33.0201434 Z" id="Shape" fill="#4EFFBB"></path>
                            <rect id="Rectangle" fill="#302C58" x="3" y="4" width="88" height="14"></rect>
                            <path d="M31.818368,5.68828952 L5.47934449,5.68828952 L5.47934449,16.3082963 L31.818368,16.3082963 L88.5049505,16.3082963 L88.5049505,5.68828952 L31.818368,5.68828952 Z M14.0897917,14.2775691 C12.35507,14.2775691 10.9481052,12.8706043 10.9481052,11.1358826 C10.9481052,9.39057699 12.35507,7.98361215 14.0897917,7.98361215 C15.8245135,7.98361215 17.2314783,9.39057699 17.2314783,11.1358826 C17.2314783,12.8709457 15.8245135,14.2775691 14.0897917,14.2775691 Z M23.0279959,14.2775691 C21.2826903,14.2775691 19.8757255,12.8706043 19.8757255,11.1358826 C19.8757255,9.39057699 21.2826903,7.98361215 23.0279959,7.98361215 C24.7627177,7.98361215 26.1696825,9.39057699 26.1696825,11.1358826 C26.1696825,12.8709457 24.7627177,14.2775691 23.0279959,14.2775691 Z M31.818368,14.2775691 C30.0836463,14.2775691 28.6766815,12.8706043 28.6766815,11.1358826 C28.6766815,9.39057699 30.0836463,7.98361215 31.818368,7.98361215 C33.5530898,7.98361215 34.9706384,9.39057699 34.9706384,11.1358826 C34.970297,12.8709457 33.5530898,14.2775691 31.818368,14.2775691 Z" id="Shape" fill="#302C58"></path>
                            <path d="M93.9737112,2.95903039 L93.9737112,78.0406282 C93.9737112,79.5530898 92.7466712,80.7801297 91.2342096,80.7801297 L2.73950154,80.7801297 C1.22669853,80.7801297 0,79.5530898 0,78.0406282 L0,2.95903039 C0,1.44622738 1.22703995,0.219528849 2.73950154,0.219528849 L91.2338682,0.219528849 C92.7466712,0.219528849 93.9737112,1.44656879 93.9737112,2.95903039 Z M88.5049505,75.3014681 L88.5049505,21.7876408 L5.47934449,21.7876408 L5.47934449,75.3011267 L88.5049505,75.3011267 L88.5049505,75.3014681 Z M88.5049505,16.3082963 L88.5049505,5.68828952 L31.818368,5.68828952 L5.47934449,5.68828952 L5.47934449,16.3082963 L31.818368,16.3082963 L88.5049505,16.3082963 Z" id="Shape" fill="#222051"></path>
                            <path d="M72.796859,44.9426425 C73.8651417,46.0109252 73.8651417,47.745647 72.796859,48.8142711 L61.341072,60.2594742 C60.8016388,60.7989075 60.1034483,61.0635029 59.4052578,61.0635029 C58.7070673,61.0635029 57.9982929,60.7989075 57.4694435,60.2594742 C56.4011608,59.1911915 56.4011608,57.4564698 57.4694435,56.3878457 L66.9788324,46.8784568 L56.9617617,36.8508023 C55.893479,35.7825196 55.893479,34.0477979 56.9617617,32.9791738 C58.0300444,31.9108911 59.7647661,31.9108911 60.8333902,32.9791738 L72.796859,44.9426425 Z" id="Shape" fill="#222051"></path>
                            <path d="M53.8941618,31.9426425 C55.2482076,32.6090816 55.7982247,34.2591328 55.1317856,35.6131786 L43.1365654,59.6777057 C42.660635,60.6401502 41.6872653,61.2007511 40.6824855,61.2007511 C40.270058,61.2007511 39.8572892,61.1054968 39.4660294,60.9149881 C38.1119836,60.2379652 37.5619665,58.5984978 38.2389894,57.244452 L50.2236258,33.1693411 C50.9006487,31.8156367 52.5401161,31.2656197 53.8941618,31.9426425 Z" id="Shape" fill="#222051"></path>
                            <path d="M36.4195971,56.3881871 C37.4878798,57.4564698 37.4878798,59.1911915 36.4195971,60.2598156 C35.8907477,60.7992489 35.1819734,61.0638443 34.4837829,61.0638443 C33.7855924,61.0638443 33.0874018,60.7992489 32.5479686,60.2598156 L21.1027654,48.8146125 C20.0238989,47.7463298 20.0238989,46.0116081 21.1027654,44.942984 L33.0556504,32.9795152 C34.1239331,31.9112325 35.8586548,31.9112325 36.9272789,32.9795152 C37.9955616,34.0477979 37.9955616,35.7825196 36.9272789,36.8511437 L26.9102083,46.8787982 L36.4195971,56.3881871 Z" id="Shape" fill="#222051"></path>
                            <path d="M31.818368,7.98361215 C33.5530898,7.98361215 34.9706384,9.39057699 34.9706384,11.1358826 C34.9706384,12.8706043 33.5530898,14.2775691 31.818368,14.2775691 C30.0836463,14.2775691 28.6766815,12.8706043 28.6766815,11.1358826 C28.6766815,9.3909184 30.0833049,7.98361215 31.818368,7.98361215 Z" id="Shape" fill="#222051"></path>
                            <path d="M23.0279959,7.98361215 C24.7627177,7.98361215 26.1696825,9.39057699 26.1696825,11.1358826 C26.1696825,12.8706043 24.7627177,14.2775691 23.0279959,14.2775691 C21.2826903,14.2775691 19.8757255,12.8706043 19.8757255,11.1358826 C19.8757255,9.3909184 21.2826903,7.98361215 23.0279959,7.98361215 Z" id="Shape" fill="#222051"></path>
                            <path d="M14.0897917,7.98361215 C15.8245135,7.98361215 17.2314783,9.39057699 17.2314783,11.1358826 C17.2314783,12.8706043 15.8245135,14.2775691 14.0897917,14.2775691 C12.35507,14.2775691 10.9481052,12.8706043 10.9481052,11.1358826 C10.9481052,9.3909184 12.35507,7.98361215 14.0897917,7.98361215 Z" id="Shape" fill="#222051"></path>
                        </g>
                    </g>
                </g>
            </g>
        </g>
    </g>
</svg>