<?xml version="1.0" encoding="UTF-8"?>
<svg width="92px" height="101px" viewBox="0 0 92 101" version="1.1" xmlns="http://www.w3.org/2000/svg" xmlns:xlink="http://www.w3.org/1999/xlink">
    <!-- Generator: Sketch 41 (35326) - http://www.bohemiancoding.com/sketch -->
    <title>push-pin</title>
    <desc>Created with Sketch.</desc>
    <defs></defs>
    <g id="icons" stroke="none" stroke-width="1" fill="none" fill-rule="evenodd">
        <g id="push-pin" transform="translate(41.000000, 44.952830) scale(-1, -1) translate(-41.000000, -44.952830) translate(-9.000000, -1.547170)">
            <g id="Layer_1">
                <g id="Group">
                    <path d="M89.045283,15.0871698 L66.1018868,-7.87283019 C64.8924528,-9.06716981 62.9641509,-9.06716981 61.7698113,-7.87283019 L55.310566,-1.4290566 C54.1162264,-0.219622642 54.1162264,1.7090566 55.310566,2.90188679 L56.9479245,4.53924528 L32.3977358,24.4532075 L28.6935849,20.7490566 C27.4841509,19.5396226 25.5558491,19.5396226 24.3615094,20.7490566 L17.9022642,27.1928302 C16.7079245,28.3871698 16.7079245,30.3309434 17.9022642,31.5249057 L28.4630189,42.0701887 L2.41396226,68.1211321 C2.0309434,68.5041509 1.7554717,68.9784906 1.61811321,69.5139623 L-0.724150943,78.529434 C-0.999622642,79.585283 -0.693584906,80.7026415 0.0716981132,81.4686792 C0.0871698113,81.4841509 0.102264151,81.4992453 0.133207547,81.514717 C0.929056604,82.2796226 2.09245283,82.5550943 3.14830189,82.2181132 L11.8113208,79.509434 C12.285283,79.3724528 12.714717,79.1109434 13.0667925,78.76 L39.1018868,52.709434 L49.6626415,63.2701887 C50.8569811,64.4645283 52.785283,64.4645283 53.9792453,63.2701887 L60.4384906,56.8264151 C61.6328302,55.6169811 61.6328302,53.6886792 60.4384906,52.4954717 L56.7188679,48.7758491 L76.6471698,24.2411321 L78.269434,25.8633962 C79.4637736,27.0577358 81.4075472,27.0577358 82.6003774,25.8633962 L89.0441509,19.4196226 C90.2381132,18.2241509 90.2381132,16.2803774 89.045283,15.0871698 Z" id="Shape" fill="#4EFFBB"></path>
                    <g id="XMLID_23_">
                        <g id="Group">
                            <polygon id="Shape" fill="#302C58" points="83.3781132 26.0464151 81.2509434 28.1732075 62.6384906 9.54679245 64.7501887 7.41849057"></polygon>
                            <polygon id="Shape" fill="#302C58" points="54.7558491 63.4532075 52.6441509 65.5811321 25.2316981 38.1532075 27.3433962 36.0403774"></polygon>
                            <polygon id="Shape" fill="#302C58" points="72.0060377 30.0566038 53.1950943 53.229434 37.5683019 37.6022642 60.7562264 18.8067925"></polygon>
                            <path d="M89.8679245,28.2192453 L83.4241509,34.6630189 C82.2298113,35.8573585 80.2864151,35.8573585 79.0920755,34.6630189 L77.4698113,33.0407547 L57.5415094,57.5754717 L61.2611321,61.2950943 C62.4554717,62.489434 62.4554717,64.4177358 61.2611321,65.6260377 L54.8018868,72.0698113 C53.6075472,73.2641509 51.6792453,73.2641509 50.485283,72.0698113 L39.9245283,61.5090566 L13.889434,87.5596226 C13.5369811,87.9120755 13.1090566,88.1720755 12.6350943,88.3090566 L3.97207547,91.0177358 C2.91622642,91.354717 1.75283019,91.0792453 0.956981132,90.3143396 C0.926415094,90.2988679 0.910943396,90.2837736 0.895471698,90.2683019 C0.130566038,89.5033962 -0.175849057,88.3860377 0.0996226415,87.3290566 L2.44188679,78.3135849 C2.57886792,77.7781132 2.85433962,77.3037736 3.23773585,76.9207547 L29.2883019,50.8701887 L18.7275472,40.3249057 C17.5332075,39.130566 17.5332075,37.1871698 18.7275472,35.9928302 L25.1867925,29.5490566 C26.3811321,28.3396226 28.309434,28.3396226 29.5177358,29.5490566 L33.2218868,33.2532075 L57.7720755,13.3403774 L56.134717,11.7030189 C54.9403774,10.5086792 54.9403774,8.58037736 56.134717,7.37207547 L62.5939623,0.928301887 C63.7883019,-0.266037736 65.7166038,-0.266037736 66.9260377,0.928301887 L89.869434,23.8867925 C91.0618868,25.0815094 91.0618868,27.025283 89.8679245,28.2192453 Z M81.2509434,28.1732075 L83.3781132,26.0460377 L64.7501887,7.41811321 L62.6384906,9.54528302 L81.2509434,28.1732075 Z M53.1950943,53.229434 L72.0060377,30.0566038 L60.7562264,18.8067925 L37.5683019,37.6022642 L53.1950943,53.229434 Z M52.6441509,65.5811321 L54.7558491,63.4539623 L27.3433962,36.0403774 L25.2316981,38.1520755 L52.6441509,65.5811321 Z M35.5935849,57.1935849 L33.6192453,55.2037736 L8.1645283,80.6569811 L7.41509434,83.534717 L10.0932075,82.6928302 L35.5935849,57.1935849 Z" id="Shape" fill="#222051"></path>
                        </g>
                    </g>
                    <g id="XMLID_13_">
                        <g id="Group">
                            <polygon id="Shape" fill="#302C58" points="83.3781132 26.0464151 81.2509434 28.1732075 62.6384906 9.54679245 64.7501887 7.41849057"></polygon>
                            <polygon id="Shape" fill="#302C58" points="54.7558491 63.4532075 52.6441509 65.5811321 25.2316981 38.1532075 27.3433962 36.0403774"></polygon>
                            <polygon id="Shape" fill="#302C58" points="72.0060377 30.0566038 53.1950943 53.229434 37.5683019 37.6022642 60.7562264 18.8067925"></polygon>
                            <path d="M89.8679245,28.2192453 L83.4241509,34.6630189 C82.2298113,35.8573585 80.2864151,35.8573585 79.0920755,34.6630189 L77.4698113,33.0407547 L57.5415094,57.5754717 L61.2611321,61.2950943 C62.4554717,62.489434 62.4554717,64.4177358 61.2611321,65.6260377 L54.8018868,72.0698113 C53.6075472,73.2641509 51.6792453,73.2641509 50.485283,72.0698113 L39.9245283,61.5090566 L13.889434,87.5596226 C13.5369811,87.9120755 13.1090566,88.1720755 12.6350943,88.3090566 L3.97207547,91.0177358 C2.91622642,91.354717 1.75283019,91.0792453 0.956981132,90.3143396 C0.926415094,90.2988679 0.910943396,90.2837736 0.895471698,90.2683019 C0.130566038,89.5033962 -0.175849057,88.3860377 0.0996226415,87.3290566 L2.44188679,78.3135849 C2.57886792,77.7781132 2.85433962,77.3037736 3.23773585,76.9207547 L29.2883019,50.8701887 L18.7275472,40.3249057 C17.5332075,39.130566 17.5332075,37.1871698 18.7275472,35.9928302 L25.1867925,29.5490566 C26.3811321,28.3396226 28.309434,28.3396226 29.5177358,29.5490566 L33.2218868,33.2532075 L57.7720755,13.3403774 L56.134717,11.7030189 C54.9403774,10.5086792 54.9403774,8.58037736 56.134717,7.37207547 L62.5939623,0.928301887 C63.7883019,-0.266037736 65.7166038,-0.266037736 66.9260377,0.928301887 L89.869434,23.8867925 C91.0618868,25.0815094 91.0618868,27.025283 89.8679245,28.2192453 Z M81.2509434,28.1732075 L83.3781132,26.0460377 L64.7501887,7.41811321 L62.6384906,9.54528302 L81.2509434,28.1732075 Z M53.1950943,53.229434 L72.0060377,30.0566038 L60.7562264,18.8067925 L37.5683019,37.6022642 L53.1950943,53.229434 Z M52.6441509,65.5811321 L54.7558491,63.4539623 L27.3433962,36.0403774 L25.2316981,38.1520755 L52.6441509,65.5811321 Z M35.5935849,57.1935849 L33.6192453,55.2037736 L8.1645283,80.6569811 L7.41509434,83.534717 L10.0932075,82.6928302 L35.5935849,57.1935849 Z" id="Shape" fill="#222051"></path>
                        </g>
                    </g>
                </g>
            </g>
        </g>
    </g>
</svg>