<?xml version="1.0" encoding="UTF-8"?>
<svg width="100px" height="100px" viewBox="0 0 100 100" version="1.1" xmlns="http://www.w3.org/2000/svg" xmlns:xlink="http://www.w3.org/1999/xlink">
    <!-- Generator: Sketch 41 (35326) - http://www.bohemiancoding.com/sketch -->
    <title>product</title>
    <desc>Created with Sketch.</desc>
    <defs></defs>
    <g id="icons" stroke="none" stroke-width="1" fill="none" fill-rule="evenodd">
        <g id="product">
            <g id="Layer_1">
                <g id="Group">
                    <path d="M98.2363265,14.7044898 C94.7028571,8.58204082 86.7469388,6.42367347 80.4918367,9.88326531 L78.7465306,10.844898 L78.3763265,10.2089796 C77.9767347,9.49918367 77.2963265,8.99632653 76.4983673,8.8044898 C75.7,8.61265306 74.8416327,8.74530612 74.1469388,9.17469388 L21.7134694,41.8383673 C20.3681633,42.6661224 19.9240816,44.3963265 20.7085714,45.7567347 L22.4391837,48.7440816 L20.3987755,49.8681633 C19.5118367,48.9518367 18.0179592,48.7146939 16.7755102,49.4093878 L9.81061224,53.2685714 C8.36163265,54.0669388 7.81469388,55.782449 8.58326531,57.1130612 L14.8530612,67.9665306 C15.6216327,69.2971429 17.4261224,69.7265306 18.86,68.9269388 L25.8395918,65.0677551 C27.0816327,64.3877551 27.6583673,63.0126531 27.3032653,61.8 L29.3436735,60.6759184 L30.8220408,63.2338776 C31.6053061,64.5942857 33.3359184,65.1118367 34.7697959,64.4171429 L54.3481633,54.8644898 L54.3481633,57.7326531 C51.9228571,58.7816327 50.2232653,61.1628571 50.2232653,63.9285714 C50.2232653,64.6971429 50.3857143,65.4363265 50.637551,66.1314286 L48.715102,66.1314286 C47.0583673,66.1314286 45.7130612,67.4473469 45.7130612,69.0595918 L45.7130612,74.7379592 L25.7053061,94.2991837 C24.5371429,95.4526531 24.5371429,97.3012245 25.7053061,98.4538776 C26.2967347,99.0306122 27.0657143,99.3110204 27.8342857,99.3110204 C28.6028571,99.3110204 29.3718367,99.0306122 29.9632653,98.4538776 L49.9697959,78.8914286 L54.1697959,78.8914286 L54.1697959,96.9755102 C54.1697959,98.6016327 55.515102,99.9183673 57.1718367,99.9183673 C58.8285714,99.9183673 60.1738776,98.602449 60.1738776,96.9755102 L60.1738776,78.8926531 L64.0036735,78.8926531 L84.4836735,98.9138776 C85.0604082,99.4906122 85.8289796,99.7710204 86.5979592,99.7710204 C87.3669388,99.7710204 88.1363265,99.4906122 88.7281633,98.9138776 C89.8967347,97.7604082 89.8967347,95.9118367 88.7281633,94.7591837 L68.2481633,74.7367347 L68.2481633,69.0583673 C68.2481633,67.4461224 66.9028571,66.1302041 65.2461224,66.1302041 L63.7085714,66.1302041 C63.9595918,65.4355102 64.1228571,64.6963265 64.1228571,63.9273469 C64.1228571,61.3102041 62.5853061,59.0620408 60.3669388,57.9240816 L60.3669388,51.9359184 L90.4138776,37.2979592 C90.4579592,37.2685714 90.502449,37.2538776 90.5616327,37.2240816 C91.2269388,36.8538776 91.715102,36.2485714 91.9514286,35.5244898 C92.1885714,34.7559184 92.0991837,33.9269388 91.6857143,33.2171429 L91.5677551,33.0106122 L93.3130612,32.0489796 C99.5522449,28.5889796 101.77102,20.8110204 98.2363265,14.7044898 Z" id="Shape" fill="#4EFFBB"></path>
                    <g id="XMLID_15_">
                        <g id="Group">
                            <path d="M45.0987755,16.6416327 L45.0555102,16.5983673 C44.095102,15.6379592 42.5983673,15.4665306 41.444898,16.1840816 L35.6371429,19.8016327 C34.3383673,20.6110204 33.8853061,22.2836735 34.6004082,23.6371429 C34.6093878,23.6542857 34.6187755,23.6722449 34.6277551,23.6893878 C35.4204082,25.1906122 37.3118367,25.7106122 38.7526531,24.8134694 L44.5763265,21.1869388 C46.1730612,20.1922449 46.4285714,17.9714286 45.0987755,16.6416327 Z" id="Shape" fill="#222051"></path>
                            <rect id="Rectangle-path" fill="#302C58" x="38.4782593" y="63" width="20.5494" height="1.96662154"></rect>
                            <path d="M90.0032653,6.47142857 C86.4685714,0.350204082 78.5138776,-1.80938776 72.2587755,1.65142857 L70.5134694,2.61183673 L70.1432653,1.97591837 C69.7436735,1.26612245 69.0632653,0.763265306 68.2653061,0.571428571 C67.4669388,0.379591837 66.6085714,0.512244898 65.9138776,0.941632653 L51.1408163,10.1444898 C49.5444898,11.1391837 49.2889796,13.3612245 50.6195918,14.6906122 L50.6628571,14.7338776 C51.6232653,15.6942857 53.1212245,15.8669388 54.2746939,15.1481633 L54.84,14.7963265 L64.3334694,31.1942857 L33.5902041,46.1730612 L25.8714286,32.8355102 L29.3608163,30.662449 C30.6620408,29.8530612 31.1195918,28.1771429 30.4122449,26.8179592 L30.384898,26.7657143 C29.602449,25.262449 27.7053061,24.7436735 26.2657143,25.6404082 L13.4791837,33.6053061 C12.1338776,34.4330612 11.6897959,36.1632653 12.4730612,37.5236735 L14.2036735,40.5110204 L12.1632653,41.635102 C11.2763265,40.7187755 9.78244898,40.4816327 8.54,41.1763265 L1.57510204,45.0355102 C0.126122449,45.8338776 -0.420816327,47.5493878 0.347755102,48.88 L6.61755102,59.7334694 C7.38612245,61.0640816 9.19061224,61.4934694 10.6244898,60.695102 L17.6040816,56.8359184 C18.8461224,56.1559184 19.4228571,54.7808163 19.0677551,53.5681633 L21.1081633,52.4440816 L22.5865306,55.0020408 C23.3697959,56.362449 25.1004082,56.88 26.5342857,56.1853061 L46.1126531,46.6326531 L46.1126531,49.5008163 C43.6873469,50.5510204 41.9877551,52.9310204 41.9877551,55.6967347 C41.9877551,56.4653061 42.1502041,57.2044898 42.4020408,57.8995918 L40.4795918,57.8995918 C38.8228571,57.8995918 37.477551,59.2155102 37.477551,60.8269388 L37.477551,66.5053061 L17.4722449,86.0665306 C16.3040816,87.22 16.3040816,89.0685714 17.4722449,90.2212245 C18.0636735,90.7979592 18.8326531,91.0783673 19.6012245,91.0783673 C20.3697959,91.0783673 21.1387755,90.7979592 21.7302041,90.2212245 L41.7367347,70.6587755 L45.9367347,70.6587755 L45.9367347,88.7428571 C45.9367347,90.3697959 47.2820408,91.684898 48.9387755,91.684898 C50.5955102,91.684898 51.9408163,90.3689796 51.9408163,88.7428571 L51.9408163,70.6587755 L55.7706122,70.6587755 L76.2506122,90.68 C76.8273469,91.2567347 77.5959184,91.5371429 78.364898,91.5371429 C79.1338776,91.5371429 79.902449,91.2567347 80.4938776,90.68 C81.6620408,89.5265306 81.6620408,87.6779592 80.4938776,86.5253061 L60.015102,66.5040816 L60.015102,60.8257143 C60.015102,59.2146939 58.6697959,57.8983673 57.0130612,57.8983673 L55.4755102,57.8983673 C55.7265306,57.2036735 55.8897959,56.4644898 55.8897959,55.6955102 C55.8897959,53.0783673 54.3522449,50.8302041 52.1338776,49.6926531 L52.1338776,43.7032653 L82.1808163,29.0640816 C82.224898,29.0346939 82.2693878,29.02 82.3285714,28.9902041 C82.9938776,28.62 83.4820408,28.0146939 83.7183673,27.2893878 C83.9546939,26.5208163 83.8661224,25.6930612 83.4526531,24.9820408 L83.3346939,24.7755102 L85.08,23.8138776 C91.3191837,20.3559184 93.5367347,12.5779592 90.0032653,6.47142857 Z M10.462449,54.4232653 L6.9722449,48.4053061 L8.71755102,47.4289796 L12.2069388,53.4616327 L10.462449,54.4232653 Z M16.6142857,48.1693878 L15.6387755,46.4685714 L17.1612245,45.6261224 L18.1514286,47.3269388 L16.6142857,48.1693878 Z M26.4040816,49.6771429 L19.1142857,37.0489796 L20.8004082,35.9987755 L28.2089796,48.8040816 L26.4040816,49.6771429 Z M48.9387755,54.7787755 C49.4567347,54.7787755 49.8697959,55.1930612 49.8697959,55.695102 C49.8697959,56.1979592 49.4555102,56.6114286 48.9387755,56.6114286 C48.4220408,56.6114286 47.9930612,56.1971429 47.9930612,55.695102 C47.9930612,55.1934694 48.4212245,54.7787755 48.9387755,54.7787755 Z M54.0110204,63.7693878 L54.0110204,64.7755102 L43.4979592,64.7755102 L43.4979592,63.7693878 L54.0110204,63.7693878 Z M69.715102,28.577551 L59.9265306,11.6469388 L66.4767347,7.56612245 L76.664898,25.1914286 L69.715102,28.577551 Z M82.1212245,18.6991837 L80.3759184,19.6595918 L73.4714286,7.72857143 L75.2167347,6.76816327 C78.5877551,4.90489796 82.8763265,6.07346939 84.7693878,9.35591837 C86.6763265,12.6518367 85.4783673,16.8371429 82.1212245,18.6991837 Z" id="Shape" fill="#222051"></path>
                            <polygon id="Shape" fill="#302C58" points="66.259919 6.56489796 77.6653059 26.2964321 69.884731 30.088023 58.9253061 11.1346377"></polygon>
                            <path d="M48.9482505,53.7787755 C50.01909,53.7787755 50.8730613,54.6352784 50.8730613,55.6732079 C50.8730613,56.7128252 50.0165585,57.5676403 48.9482505,57.5676403 C47.8799425,57.5676403 46.9930612,56.7111375 46.9930612,55.6732079 C46.9930612,54.6361222 47.8782548,53.7787755 48.9482505,53.7787755 Z" id="Shape" fill="#302C58"></path>
                            <polygon id="Shape" fill="#302C58" points="20.4662948 35 29.4999733 50.616795 27.3012871 51.6800492 18.4099731 36.2807833"></polygon>
                            <polygon id="Shape" fill="#302C58" points="17.3708442 44.6261224 19.1487757 47.6752605 16.3888811 49.1888455 14.6387755 46.1375107"></polygon>
                        </g>
                    </g>
                </g>
            </g>
        </g>
    </g>
</svg>