<?xml version="1.0" encoding="UTF-8"?>
<svg width="20px" height="25px" viewBox="0 0 20 25" version="1.1" xmlns="http://www.w3.org/2000/svg" xmlns:xlink="http://www.w3.org/1999/xlink">
    <!-- Generator: Sketch 41 (35326) - http://www.bohemiancoding.com/sketch -->
    <title>coffee-cup</title>
    <desc>Created with Sketch.</desc>
    <defs></defs>
    <g id="icons" stroke="none" stroke-width="1" fill="none" fill-rule="evenodd">
        <g id="coffee-cup">
            <g id="Layer_1">
                <g id="Group">
                    <g transform="translate(1.681416, 1.681416)" id="Shape" fill="#4EFFBB">
                        <path d="M16.0651327,11.8458407 L14.8383186,11.8458407 L14.8383186,11.6746018 L14.9513274,11.6746018 C15.7773451,11.6746018 15.7807965,10.389292 14.9513274,10.389292 L0.642389381,10.389292 C-0.183628319,10.389292 -0.187079646,11.6746018 0.642389381,11.6746018 L0.683628319,11.6746018 L0.683628319,19.4922124 C0.683628319,21.2538938 2.11628319,22.6830973 3.87451327,22.6830973 L11.6476991,22.6830973 C13.100885,22.6830973 14.3311504,21.7028319 14.7116814,20.3695575 L16.0653982,20.3695575 C17.2683186,20.3695575 18.2485841,19.389292 18.2485841,18.1863717 L18.2485841,14.029292 C18.2480531,12.8261947 17.2680531,11.8458407 16.0651327,11.8458407 Z M16.8773451,18.1863717 C16.8773451,18.6353097 16.5140708,18.9985841 16.0651327,18.9985841 L14.8383186,18.9985841 L14.8383186,13.2168142 L16.0651327,13.2168142 C16.5140708,13.2168142 16.8773451,13.5800885 16.8773451,14.0290265 L16.8773451,18.1863717 Z"></path>
                        <path d="M5.84150442,5.15247788 L9.68690265,5.15247788 C9.69035398,5.15247788 9.69035398,5.14902655 9.69035398,5.14557522 L9.74168142,5.14557522 C10.4030973,5.14212389 10.9480531,5.67345133 10.9515044,6.33486726 C10.9584071,6.99628319 10.4236283,7.54123894 9.76221239,7.54469027 L8.22345133,7.55849558 L8.22345133,7.5619469 L8.17557522,7.5619469 C7.11309735,7.57230088 6.20831858,8.22681416 5.82460177,9.14884956 C5.6360177,9.60469027 5.96185841,10.1049558 6.45513274,10.1049558 C6.74318584,10.1049558 6.98300885,9.91982301 7.09955752,9.6560177 C7.28123894,9.23451327 7.69929204,8.93637168 8.1859292,8.93292035 L8.22716814,8.93292035 L8.22716814,8.92946903 L9.77283186,8.91566372 C11.1916814,8.90530973 12.3328319,7.74362832 12.3227434,6.32477876 C12.3123894,4.90938053 11.150708,3.76477876 9.73185841,3.77486726 L9.63238938,3.77486726 L9.63238938,3.78176991 L5.84150442,3.78176991 C5.10106195,3.78176991 4.51867257,3.11 4.66256637,2.34566372 C4.77212389,1.77336283 5.31017699,1.38265487 5.89283186,1.38265487 L7.16778761,1.38265487 L7.31168142,1.38265487 L8.1959292,1.38265487 L8.33637168,1.38265487 L8.70654867,1.38265487 C9.08362832,1.38265487 9.3919469,1.07415929 9.3919469,0.697345133 C9.3919469,0.317079646 9.08345133,0.0120353982 8.70654867,0.0120353982 L8.33637168,0.0120353982 L8.1959292,0.0120353982 L7.31168142,0.0120353982 L7.16778761,0.0120353982 L5.95106195,0.0120353982 C4.63168142,0.0120353982 3.44584071,0.95460177 3.28814159,2.26380531 C3.09982301,3.82265487 4.31973451,5.15247788 5.84150442,5.15247788 Z"></path>
                    </g>
                    <g id="XMLID_13_">
                        <g id="Group">
                            <path d="M13.8547436,11.6138053 L13.8547436,19.6831863 C13.8547436,20.7401648 12.9962513,21.5986571 11.9392728,21.5986571 L3.75821424,21.5986571 C2.70123571,21.5986571 1.84274336,20.7401648 1.84274336,19.6831863 L1.84274336,11.6138053 L13.8547436,11.6138053 L13.8547436,11.6138053 Z" id="Shape" fill="#302C58"></path>
                            <path d="M18.2364602,14.0174336 L18.2364602,18.1747788 C18.2364602,19.3776991 17.2561947,20.3579646 16.0532743,20.3579646 L14.6995575,20.3579646 C14.3192035,21.6911504 13.0886726,22.6715044 11.6355752,22.6715044 L3.86265487,22.6715044 C2.10442478,22.6715044 0.671769912,21.2423009 0.671769912,19.4806195 L0.671769912,11.6630088 L0.630530973,11.6630088 C-0.198938053,11.6630088 -0.195486726,10.3776991 0.630530973,10.3776991 L14.939469,10.3776991 C15.7689381,10.3776991 15.7654867,11.6630088 14.939469,11.6630088 L14.8264602,11.6630088 L14.8264602,11.8342478 L16.0532743,11.8342478 C17.2564602,11.8342478 18.2364602,12.8145133 18.2364602,14.0174336 Z M16.8657522,18.1747788 L16.8657522,14.0174336 C16.8657522,13.5684956 16.5024779,13.2052212 16.0535398,13.2052212 L14.8267257,13.2052212 L14.8267257,18.9869912 L16.0535398,18.9869912 C16.5024779,18.9869912 16.8657522,18.6237168 16.8657522,18.1747788 Z M13.4554867,19.4806195 L13.4554867,11.8138053 L2.04274336,11.8138053 L2.04274336,19.4806195 C2.04274336,20.4848673 2.85840708,21.300531 3.86265487,21.300531 L11.6355752,21.300531 C12.639823,21.300531 13.4554867,20.4847788 13.4554867,19.4806195 Z" id="Shape" fill="#222051"></path>
                            <path d="M12.3107965,6.31309735 C12.3211504,7.7319469 11.1797345,8.89389381 9.76088496,8.9039823 L8.21522124,8.91778761 L8.21522124,8.92123894 L8.1739823,8.92123894 C7.68725664,8.92469027 7.26920354,9.22283186 7.08761062,9.64433628 C6.97115044,9.90814159 6.73123894,10.0932743 6.44318584,10.0932743 C5.94955752,10.0932743 5.6240708,9.59274336 5.81265487,9.13690265 C6.19646018,8.21486726 7.10141593,7.56035398 8.16362832,7.55 L8.21150442,7.55 L8.21150442,7.54654867 L9.75026549,7.53274336 C10.4116814,7.52929204 10.9465487,6.98433628 10.9395575,6.32292035 C10.9361062,5.66150442 10.3911504,5.13017699 9.72973451,5.13362832 L9.67840708,5.13362832 C9.67840708,5.13707965 9.67840708,5.14053097 9.67495575,5.14053097 L5.82982301,5.14053097 C4.3080531,5.14053097 3.08814159,3.81079646 3.27646018,2.25123894 C3.43415929,0.942566372 4.6200885,0 5.93946903,0 L7.15619469,0 L7.3000885,0 L8.18433628,0 L8.32477876,0 L8.69495575,0 C9.0720354,0 9.38035398,0.305044248 9.38035398,0.685309735 C9.38035398,1.06238938 9.07185841,1.37061947 8.69495575,1.37061947 L8.32477876,1.37061947 L8.18433628,1.37061947 L7.3000885,1.37061947 L7.15619469,1.37061947 L5.88115044,1.37061947 C5.29849558,1.37061947 4.76044248,1.76132743 4.65088496,2.33362832 C4.50699115,3.0979646 5.08946903,3.76973451 5.82982301,3.76973451 L9.62044248,3.76973451 L9.62044248,3.76309735 L9.7199115,3.76309735 C11.1387611,3.75283186 12.3004425,4.89743363 12.3107965,6.31309735 Z" id="Shape" fill="#222051"></path>
                        </g>
                    </g>
                </g>
            </g>
        </g>
    </g>
</svg>