<?xml version="1.0" standalone="no"?>
<!DOCTYPE svg PUBLIC "-//W3C//DTD SVG 20010904//EN"
 "http://www.w3.org/TR/2001/REC-SVG-20010904/DTD/svg10.dtd">
<svg version="1.0" xmlns="http://www.w3.org/2000/svg"
 width="260.000000pt" height="260.000000pt" viewBox="0 0 260.000000 260.000000"
 preserveAspectRatio="xMidYMid meet">
<metadata>
Created by potrace 1.11, written by Peter Selinger 2001-2013
</metadata>
<g transform="translate(0.000000,260.000000) scale(0.100000,-0.100000)"
fill="#000000" stroke="none">
<path d="M1420 2549 c-53 -48 -74 -60 -221 -127 -83 -37 -142 -90 -166 -147
-17 -42 -20 -45 -56 -45 -27 0 -45 -7 -62 -25 -22 -21 -25 -33 -25 -89 0 -60
-2 -66 -22 -70 -291 -61 -428 -116 -511 -205 -50 -54 -83 -117 -93 -182 l-7
-39 -51 0 c-70 0 -124 -32 -154 -90 -21 -42 -23 -55 -20 -181 3 -131 4 -137
31 -172 37 -49 75 -67 142 -67 l55 0 0 -128 c0 -143 13 -204 58 -271 l28 -42
-32 -34 c-40 -43 -58 -118 -46 -187 11 -58 30 -88 78 -125 37 -28 40 -28 196
-31 185 -4 208 3 208 63 0 57 -23 65 -178 65 -73 0 -142 5 -152 10 -27 15 -36
74 -16 105 l16 25 643 0 c487 0 646 -3 655 -12 18 -18 15 -94 -4 -112 -13 -14
-50 -16 -253 -16 -218 0 -239 -2 -254 -18 -25 -27 -22 -78 5 -96 19 -13 62
-16 265 -16 256 0 279 3 326 48 45 43 60 80 60 153 0 54 -5 75 -28 116 l-28
50 32 40 c51 64 71 144 71 289 l0 124 54 0 c59 0 103 23 140 73 19 26 21 42
21 181 l0 153 -29 37 c-34 45 -79 66 -140 66 l-44 0 -11 52 c-25 113 -103 207
-215 258 -86 39 -211 79 -314 100 l-87 17 -3 69 c-4 85 -25 114 -84 114 -21 0
-38 4 -38 9 0 15 73 59 150 91 95 39 158 80 209 135 46 50 52 84 21 115 -31
31 -60 24 -120 -31z m-270 -469 c0 -18 -7 -20 -65 -20 -58 0 -65 2 -65 20 0
18 7 20 65 20 58 0 65 -2 65 -20z m265 -481 c50 -6 95 -17 102 -23 20 -18 34
-322 23 -487 -6 -78 -14 -147 -19 -152 -28 -28 -331 -52 -536 -43 -149 7 -328
26 -339 37 -3 2 -10 65 -17 139 -12 135 -7 408 9 480 7 33 10 35 62 43 191 28
529 31 715 6z"/>
<path d="M1347 1559 c-34 -26 -36 -75 -7 -107 59 -63 149 30 93 96 -28 31 -56
35 -86 11z"/>
<path d="M1386 1354 c-19 -19 -17 -4 -20 -154 -2 -138 6 -160 62 -160 56 0 67
27 67 167 0 119 -1 126 -24 144 -28 23 -64 25 -85 3z"/>
<path d="M890 400 c-11 -11 -20 -31 -20 -45 0 -44 32 -65 100 -65 68 0 100 21
100 65 0 44 -32 65 -100 65 -47 0 -64 -4 -80 -20z"/>
</g>
</svg>
