<?xml version="1.0" standalone="no"?>
<!DOCTYPE svg PUBLIC "-//W3C//DTD SVG 20010904//EN"
 "http://www.w3.org/TR/2001/REC-SVG-20010904/DTD/svg10.dtd">
<svg version="1.0" xmlns="http://www.w3.org/2000/svg"
 width="260.000000pt" height="260.000000pt" viewBox="0 0 260.000000 260.000000"
 preserveAspectRatio="xMidYMid meet">
<metadata>
Created by potrace 1.11, written by Peter Selinger 2001-2013
</metadata>
<g transform="translate(0.000000,260.000000) scale(0.100000,-0.100000)"
fill="#000000" stroke="none">
<path d="M446 1864 c-142 -35 -292 -147 -349 -259 -89 -177 -81 -417 19 -566
110 -165 293 -254 503 -245 152 7 268 52 372 145 l52 47 1 202 c1 128 -3 202
-9 203 -12 1 -477 1 -487 0 -5 -1 -8 -44 -8 -96 0 -69 3 -95 13 -96 6 0 69 -1
140 -2 l127 -1 0 -62 c0 -58 -2 -64 -29 -84 -46 -32 -110 -52 -183 -55 -80 -4
-127 8 -194 52 -230 149 -180 541 79 618 125 37 241 6 328 -90 l27 -29 63 34
c35 18 76 41 92 50 l27 17 -29 40 c-59 81 -146 141 -251 173 -71 21 -227 24
-304 4z"/>
<path d="M1576 1863 c-134 -31 -268 -126 -336 -239 -97 -161 -98 -409 -2 -574
67 -114 214 -215 357 -245 68 -14 195 -14 260 0 50 10 136 54 182 91 52 43
127 139 119 152 -3 6 -44 28 -90 51 l-85 40 -59 -59 c-47 -47 -70 -62 -117
-75 -111 -33 -225 -2 -314 83 -58 56 -101 176 -95 262 8 106 38 175 103 240
64 64 132 89 231 86 92 -3 139 -25 202 -95 l45 -50 91 45 c51 24 92 48 92 53
0 17 -75 109 -120 146 -112 94 -292 128 -464 88z"/>
<path d="M2342 1030 c-88 -55 -89 -166 -1 -219 81 -50 189 17 189 116 0 89
-112 150 -188 103z"/>
</g>
</svg>
